<?xml version="1.0" encoding="utf-8"?>
<!-- Generator: Adobe Illustrator 26.0.1, SVG Export Plug-In . SVG Version: 6.00 Build 0)  -->
<svg version="1.1" id="Capa_1" xmlns="http://www.w3.org/2000/svg" xmlns:xlink="http://www.w3.org/1999/xlink" x="0px" y="0px"
	 viewBox="0 0 200 48" style="enable-background:new 0 0 200 48;" xml:space="preserve">
<style type="text/css">
	.st0{fill:#0071BC;}
</style>
<path class="st0" d="M24.2,29.9L24.2,29.9L24.2,29.9l-5.2,3l-5.2-3l0,0v-5.9V18l5.2-3l5.2,3l-5.2,3v5.9h0L24.2,29.9z"/>
<path class="st0" d="M27.6,5.2l-9.2-5.2L9.2,5.2L0,10.4v27l9.2,5.3l9.2,5.2l9.2-5.2l9.2-5.3v-27L27.6,5.2z M28.9,33l-5.3,3l-5.3,3
	l-5.3-3l-5.3-3v0l0,0v-6v-6v-6l5.3-3l5.3-3l5.3,3l5.3,3v0v6l-5.3,3l5.3,3L28.9,33L28.9,33L28.9,33z"/>
<g>
	<path class="st0" d="M56.3,37.2c-0.9,0-1.8-0.3-2.5-1c-0.8-0.6-1.1-1.5-1.1-2.7V14c0-1,0.3-1.9,1-2.5c0.7-0.6,1.5-1,2.4-1h6.3
		c2.1,0,3.9,0.6,5.6,1.7c1.6,1.1,2.4,2.8,2.4,4.8c0,1.1-0.2,2.2-0.7,3.1c-0.5,1-1.1,1.7-1.8,2.2c1.3,0.4,2.3,1.3,3.1,2.4
		c0.8,1.2,1.1,2.6,1.1,4.2c0,2.7-0.8,4.7-2.4,6.2c-1.6,1.4-3.6,2.1-6,2.1H56.3z M58.7,21.3h3.9c1.1,0,2-0.4,2.5-1.1
		c0.6-0.8,0.9-1.6,0.9-2.4c0-0.8-0.3-1.5-0.8-2.2c-0.6-0.7-1.4-1-2.6-1H59c-1.2,0-1.8,0.6-1.8,1.7v3.5
		C57.2,20.8,57.7,21.3,58.7,21.3z M58.9,33.1h4.7c1.4,0,2.5-0.4,3.1-1.3c0.6-0.9,1-1.8,1-2.8c0-0.9-0.3-1.8-0.9-2.7
		c-0.6-0.8-1.6-1.3-2.9-1.3h-5.2c-1,0-1.5,0.5-1.5,1.5v4.8C57.2,32.6,57.8,33.1,58.9,33.1z"/>
	<path class="st0" d="M85,37.1c-1.9,0-3.6-0.4-5.1-1.3c-1.5-0.9-2.7-2.1-3.5-3.7c-0.8-1.6-1.3-3.4-1.3-5.3c0-1.9,0.4-3.6,1.3-5.1
		c0.8-1.5,2-2.7,3.5-3.6c1.5-0.9,3.2-1.3,5.1-1.3c1.2,0,2.4,0.2,3.3,0.6c1,0.4,1.8,1,2.5,1.6c0.1-0.6,0.4-1.1,0.8-1.4
		c0.4-0.3,0.9-0.5,1.5-0.5c0.6,0,1.1,0.2,1.6,0.6c0.5,0.4,0.7,0.9,0.7,1.7V35c0,0.7-0.2,1.2-0.7,1.5c-0.5,0.4-1,0.5-1.6,0.5
		c-0.6,0-1.1-0.2-1.6-0.5c-0.5-0.4-0.7-0.9-0.7-1.5v-0.3c-0.7,0.7-1.6,1.3-2.5,1.7C87.4,36.9,86.3,37.1,85,37.1z M85.4,32.9
		c1.7,0,3-0.6,4-1.7c1-1.1,1.5-2.6,1.5-4.5c0-1.8-0.5-3.2-1.5-4.3c-1-1.1-2.3-1.6-4-1.6c-1.7,0-3.1,0.5-4.2,1.6
		c-1.1,1.1-1.6,2.5-1.6,4.3c0,1.9,0.5,3.4,1.6,4.5C82.3,32.4,83.7,32.9,85.4,32.9z"/>
	<path class="st0" d="M102.7,37.1c-0.6,0-1.1-0.2-1.6-0.5s-0.7-0.9-0.7-1.5V9.6c0-0.8,0.2-1.3,0.7-1.7c0.5-0.4,1-0.6,1.6-0.6
		c0.6,0,1.1,0.2,1.6,0.6c0.5,0.4,0.7,0.9,0.7,1.7V35c0,0.7-0.2,1.2-0.7,1.5C103.8,36.9,103.3,37.1,102.7,37.1z"/>
	<path class="st0" d="M120.9,37.1c-1.2,0-2.4-0.2-3.3-0.6c-1-0.4-1.8-1-2.5-1.7V44c0,0.7-0.2,1.2-0.7,1.5c-0.5,0.4-1,0.5-1.6,0.5
		c-0.6,0-1.1-0.2-1.6-0.5c-0.5-0.4-0.7-0.9-0.7-1.5V19.3c0-0.8,0.2-1.3,0.7-1.7c0.5-0.4,1-0.6,1.6-0.6c0.5,0,1,0.2,1.5,0.5
		c0.4,0.3,0.7,0.8,0.8,1.4c0.7-0.7,1.6-1.2,2.5-1.6c1-0.4,2.1-0.6,3.3-0.6c2,0,3.7,0.4,5.2,1.3c1.5,0.9,2.7,2.1,3.5,3.6
		c0.8,1.5,1.3,3.2,1.3,5.1c0,2-0.4,3.7-1.3,5.3c-0.8,1.6-2,2.8-3.5,3.7C124.6,36.6,122.9,37.1,120.9,37.1z M120.5,32.9
		c1.7,0,3.1-0.6,4.2-1.7c1.1-1.1,1.6-2.6,1.6-4.5c0-1.8-0.5-3.2-1.6-4.3c-1.1-1.1-2.5-1.6-4.2-1.6c-1.7,0-3,0.5-4,1.6
		c-1,1.1-1.5,2.5-1.5,4.3c0,1.9,0.5,3.4,1.5,4.5C117.5,32.4,118.8,32.9,120.5,32.9z"/>
	<path class="st0" d="M144.1,37.1c-1.9,0-3.6-0.4-5.1-1.3c-1.5-0.9-2.7-2.1-3.5-3.7c-0.8-1.6-1.3-3.4-1.3-5.3c0-1.9,0.4-3.6,1.3-5.1
		c0.8-1.5,2-2.7,3.5-3.6c1.5-0.9,3.2-1.3,5.1-1.3c1.2,0,2.4,0.2,3.3,0.6c1,0.4,1.8,1,2.5,1.6c0.1-0.6,0.4-1.1,0.8-1.4
		c0.4-0.3,0.9-0.5,1.5-0.5c0.6,0,1.1,0.2,1.6,0.6c0.5,0.4,0.7,0.9,0.7,1.7V35c0,0.7-0.2,1.2-0.7,1.5s-1,0.5-1.6,0.5
		c-0.6,0-1.1-0.2-1.6-0.5c-0.5-0.4-0.7-0.9-0.7-1.5v-0.3c-0.7,0.7-1.6,1.3-2.5,1.7C146.5,36.9,145.4,37.1,144.1,37.1z M144.5,32.9
		c1.7,0,3-0.6,4-1.7c1-1.1,1.5-2.6,1.5-4.5c0-1.8-0.5-3.2-1.5-4.3c-1-1.1-2.3-1.6-4-1.6c-1.7,0-3.1,0.5-4.2,1.6
		c-1.1,1.1-1.6,2.5-1.6,4.3c0,1.9,0.5,3.4,1.6,4.5C141.4,32.4,142.8,32.9,144.5,32.9z"/>
	<path class="st0" d="M157.6,19.8c0-0.7,0.2-1.3,0.7-1.7c0.5-0.4,1-0.6,1.6-0.6c0.9,0,1.6,0.5,2,1.4l5.2,12.8
		c0.1,0.4,0.4,0.5,0.7,0.5c0.4,0,0.6-0.2,0.7-0.5l4.5-12.8c0.4-1,1-1.5,2.1-1.5c0.6,0,1.2,0.2,1.7,0.6c0.5,0.4,0.8,0.9,0.8,1.5
		c0,0.2-0.1,0.5-0.2,0.9l-10.2,24.9c-0.4,1-1,1.5-2.1,1.5c-0.6,0-1.1-0.2-1.6-0.6c-0.5-0.4-0.8-0.9-0.8-1.5c0-0.4,0.1-0.8,0.2-0.9
		l3.3-6.7c-0.9-0.1-1.6-0.5-1.9-1.3l-6.6-15.3C157.6,20.2,157.6,20,157.6,19.8z"/>
	<path class="st0" d="M187.9,37.1c-1.3,0-2.6-0.2-3.9-0.5s-2.5-0.9-3.5-1.6c-0.5-0.5-0.8-1-0.8-1.6c0-0.6,0.2-1.1,0.7-1.5
		c0.5-0.4,1-0.7,1.6-0.7c0.3,0,0.6,0.1,0.9,0.3c0.8,0.5,1.7,0.9,2.8,1.2c1,0.3,2,0.4,3,0.4c0.9,0,1.7-0.2,2.3-0.5
		c0.6-0.3,1-0.8,1-1.5c0-0.7-0.3-1.2-0.9-1.6c-0.6-0.4-1.7-0.6-3.2-0.8c-0.6-0.1-1.4-0.2-2.2-0.3c-0.9-0.1-1.7-0.4-2.6-0.7
		c-0.8-0.4-1.6-0.9-2.1-1.6c-0.6-0.7-0.9-1.7-0.9-2.9c0-2,0.7-3.5,2.2-4.7c1.4-1.2,3.4-1.7,5.9-1.7c1.4,0,2.8,0.2,4,0.5
		c1.3,0.4,2.2,0.8,2.8,1.3c0.5,0.4,0.7,0.9,0.7,1.4c0,0.6-0.2,1.1-0.6,1.5c-0.4,0.4-0.9,0.7-1.5,0.7c-0.3,0-0.6-0.1-0.9-0.2
		c-0.7-0.4-1.5-0.7-2.4-0.9c-0.9-0.2-1.7-0.3-2.5-0.3c-0.9,0-1.7,0.1-2.4,0.4c-0.6,0.3-1,0.7-1,1.4c0,0.4,0.2,0.8,0.6,1.2
		c0.4,0.3,1.4,0.6,3,0.8c0.8,0.1,1.6,0.2,2.6,0.4c1,0.2,1.9,0.5,2.8,0.8c0.9,0.4,1.6,1,2.2,1.8c0.6,0.8,0.9,1.9,0.9,3.3
		c0,1.4-0.4,2.6-1.2,3.5c-0.8,0.9-1.8,1.6-3.1,2C190.8,36.9,189.4,37.1,187.9,37.1z"/>
</g>
</svg>
